<?xml version="1.0" encoding="UTF-8" standalone="no"?>
<!-- Created with Inkscape (http://www.inkscape.org/) -->

<svg
   version="1.1"
   id="svg2"
   width="533.33331"
   height="533.33331"
   viewBox="0 0 533.33331 533.33331"
   sodipodi:docname="O4WMNZ1.eps"
   xmlns:inkscape="http://www.inkscape.org/namespaces/inkscape"
   xmlns:sodipodi="http://sodipodi.sourceforge.net/DTD/sodipodi-0.dtd"
   xmlns="http://www.w3.org/2000/svg"
   xmlns:svg="http://www.w3.org/2000/svg">
  <defs
     id="defs6" />
  <sodipodi:namedview
     id="namedview4"
     pagecolor="#ffffff"
     bordercolor="#000000"
     borderopacity="0.25"
     inkscape:showpageshadow="2"
     inkscape:pageopacity="0.0"
     inkscape:pagecheckerboard="0"
     inkscape:deskcolor="#d1d1d1" />
  <g
     id="g8"
     inkscape:groupmode="layer"
     inkscape:label="ink_ext_XXXXXX"
     transform="matrix(1.3333333,0,0,-1.3333333,0,533.33333)">
    <g
       id="g10"
       transform="scale(0.1)">
      <path
         d="M 4000,0 H 0 V 4000 H 4000 V 0"
         style="fill:#ffffff;fill-opacity:1;fill-rule:evenodd;stroke:none"
         id="path12" />
      <path
         d="m 1118.27,1198.29 c -6.33,-2.71 -27.09,-4.06 -62.29,-4.06 -14.95,0 -24.68,0.2 -29.19,0.59 -13.34,1.21 -22.32,4.17 -26.931,8.89 -5.718,5.82 -8.582,20.06 -8.582,42.73 0,12.23 0.207,21.15 0.61,26.77 1.203,16.56 9.023,26.18 23.463,28.89 5.42,1 23.07,1.51 52.97,1.51 18.85,0 28.83,-0.07 29.93,-0.16 14.95,-1 23.97,-4.2 27.09,-9.62 1.6,-2.81 2.65,-7.62 3.16,-14.44 h 59.73 v 7.07 c 0,16.24 -2.17,28.78 -6.47,37.6 -5.52,11.24 -15.4,19.01 -29.64,23.33 -11.94,3.62 -44.79,5.41 -98.55,5.41 -42.53,0 -70.816,-2.65 -84.859,-7.97 -17.754,-6.72 -29.336,-19.25 -34.75,-37.61 -3.008,-10.24 -4.52,-28.2 -4.52,-53.87 0,-33.1 2.414,-56.67 7.223,-70.71 6.926,-20.26 23.719,-32.09 50.402,-35.51 14.044,-1.8 34.454,-2.71 61.234,-2.71 32.7,0 54.57,0.21 65.6,0.61 16.15,0.59 28.33,1.85 36.56,3.76 16.65,3.92 27.88,11.63 33.7,23.16 4.52,8.84 6.77,22.83 6.77,41.99 v 9.33 h -60.48 c -0.2,-13.24 -4.26,-21.57 -12.18,-24.98"
         style="fill:#17233f;fill-opacity:1;fill-rule:nonzero;stroke:none"
         id="path14" />
      <path
         d="m 1299.86,1277.13 c 2.1,11.23 6.77,18.35 13.99,21.37 7.72,3.2 28.19,4.8 61.38,4.8 20.26,0 31.6,-0.04 34.01,-0.14 14.74,-0.61 24.42,-1.97 29.03,-4.06 7.93,-3.52 12.75,-11.19 14.45,-23.03 0.61,-4.21 0.9,-12.43 0.9,-24.66 0,-15.96 -0.45,-26.24 -1.35,-30.85 -2.41,-12.24 -8.18,-19.82 -17.3,-22.73 -8.12,-2.61 -30.84,-3.9 -68.16,-3.9 -13.84,0 -25.62,0.35 -35.35,1.04 -16.76,1.2 -26.69,7.23 -29.79,18.06 -2.11,7.32 -3.16,19.67 -3.16,37.01 0,13.25 0.45,22.27 1.35,27.09 z m -33.1,-123.38 c 10.93,-5.21 28.59,-8.36 52.96,-9.47 6.41,-0.3 24.53,-0.46 54.31,-0.46 34.51,0 59.38,0.6 74.63,1.8 34.4,2.71 55.16,17.56 62.28,44.55 3.21,12.12 4.82,31.14 4.82,57.02 0,11.73 -0.15,21.61 -0.45,29.64 -0.51,13.83 -1.91,24.82 -4.22,32.96 -6.31,22.24 -22.56,35.75 -48.74,40.45 -11.64,2.11 -43.59,3.16 -95.84,3.16 -28.59,0 -50.35,-0.74 -65.3,-2.25 -31.69,-3.21 -51.5,-15.5 -59.42,-36.86 -3.31,-8.93 -5.37,-19.61 -6.17,-32.04 -0.3,-4.72 -0.45,-15.71 -0.45,-32.96 0,-25.48 0.85,-42.83 2.55,-52.06 4.01,-21.76 13.69,-36.25 29.04,-43.48"
         style="fill:#17233f;fill-opacity:1;fill-rule:nonzero;stroke:none"
         id="path16" />
      <path
         d="m 1854.28,1304.51 -3.16,-158.58 h 61.24 v 205.38 h -98.53 l -74.59,-136.32 -75.01,136.32 h -99.27 v -205.38 h 60.33 l -1.65,158.58 89.67,-158.58 h 49.95 l 91.02,158.58"
         style="fill:#17233f;fill-opacity:1;fill-rule:nonzero;stroke:none"
         id="path18" />
      <path
         d="m 2142.85,1250.35 c -4.41,-2.62 -12.38,-3.91 -23.91,-3.91 h -90.88 v 54.75 h 90.88 c 12.94,0 21.5,-1.75 25.71,-5.26 4.82,-4.01 7.23,-12.24 7.23,-24.67 0,-10.44 -3.01,-17.41 -9.03,-20.91 z m 71.32,25.87 c 0,16.26 -1.5,29.09 -4.52,38.52 -4.31,13.54 -12.24,23.17 -23.77,28.88 -7.92,3.92 -18.2,6.32 -30.84,7.23 -4.32,0.3 -14.95,0.46 -31.91,0.46 h -157.36 v -205.38 h 62.29 v 50.55 h 100.49 c 14.16,0 25.39,0.45 33.72,1.35 12.12,1.31 21.71,4.22 28.73,8.73 15.45,9.93 23.17,33.16 23.17,69.66"
         style="fill:#17233f;fill-opacity:1;fill-rule:nonzero;stroke:none"
         id="path20" />
      <path
         d="m 2334.15,1225.36 43.58,81.76 44.73,-81.76 z m 2.49,125.95 -115.55,-205.38 h 70.78 l 19.61,36.71 h 132.65 l 20.43,-36.71 h 68.25 l -112.36,205.38 h -83.81"
         style="fill:#17233f;fill-opacity:1;fill-rule:nonzero;stroke:none"
         id="path22" />
      <path
         d="m 2619.79,1300.6 122.78,-154.67 h 100.33 v 205.38 h -59.12 l 1.66,-156.34 -124.58,156.34 h -99.44 v -205.38 h 60.18 l -1.81,154.67"
         style="fill:#17233f;fill-opacity:1;fill-rule:nonzero;stroke:none"
         id="path24" />
      <path
         d="m 3091.76,1351.31 -68.75,-85.02 -69.37,85.02 h -79.89 l 117.51,-134.21 v -71.17 h 62.88 v 71.17 L 3170,1351.31 h -78.24"
         style="fill:#17233f;fill-opacity:1;fill-rule:nonzero;stroke:none"
         id="path26" />
      <path
         d="m 1283.26,1024.78 -25.58,31.35 h -29.47 l 43.34,-49.5 v -26.251 h 23.2 v 26.251 l 42.72,49.5 h -28.85 l -25.36,-31.35"
         style="fill:#17233f;fill-opacity:1;fill-rule:nonzero;stroke:none"
         id="path28" />
      <path
         d="m 1425.32,1007.9 c -0.89,-4.51 -3.02,-7.3 -6.38,-8.369 -3,-0.972 -11.38,-1.441 -25.14,-1.441 -5.11,0 -9.45,0.121 -13.04,0.39 -6.18,0.442 -9.85,2.65 -10.99,6.65 -0.78,2.7 -1.17,7.25 -1.17,13.65 0,4.88 0.17,8.21 0.51,9.99 0.77,4.14 2.49,6.77 5.15,7.88 2.85,1.18 10.4,1.78 22.64,1.78 7.48,0 11.66,-0.02 12.55,-0.06 5.44,-0.23 9,-0.72 10.71,-1.5 2.92,-1.29 4.69,-4.12 5.32,-8.49 0.22,-1.55 0.34,-4.58 0.34,-9.1 0,-5.88 -0.17,-9.68 -0.5,-11.38 z m 21.69,32.91 c -2.33,8.21 -8.32,13.19 -17.98,14.93 -4.29,0.77 -16.07,1.16 -35.34,1.16 -10.55,0 -18.57,-0.27 -24.09,-0.83 -11.69,-1.18 -18.99,-5.71 -21.91,-13.6 -1.23,-3.29 -1.99,-7.23 -2.28,-11.81 -0.11,-1.74 -0.17,-5.8 -0.17,-12.15 0,-9.41 0.32,-15.8 0.95,-19.201 1.48,-8.028 5.05,-13.379 10.71,-16.039 4.03,-1.918 10.54,-3.079 19.53,-3.5 2.36,-0.11 9.04,-0.161 20.03,-0.161 12.73,0 21.9,0.223 27.52,0.653 12.69,1.008 20.35,6.488 22.98,16.437 1.18,4.471 1.78,11.481 1.78,21.031 0,4.33 -0.06,7.97 -0.18,10.93 -0.18,5.1 -0.69,9.16 -1.55,12.15"
         style="fill:#17233f;fill-opacity:1;fill-rule:nonzero;stroke:none"
         id="path30" />
      <path
         d="m 1540.8,1021.39 v -6.55 c 0.03,-4.85 -0.34,-8.41 -1.12,-10.71 -1.18,-3.51 -4.37,-5.482 -9.59,-5.88 -3.32,-0.258 -9.12,-0.391 -17.4,-0.391 -5.58,0 -9.69,0.172 -12.3,0.5 -5.92,0.743 -9.32,3.481 -10.2,8.211 -0.34,1.78 -0.5,4.9 -0.5,9.38 0,0.04 0,0.34 0,0.89 0,0.66 0,1.31 0,1.94 v 37.35 h -23.09 v -40.73 c 0,-8.36 0.45,-14.54 1.33,-18.529 2.19,-9.812 9.45,-15.301 21.81,-16.492 4.63,-0.438 12.78,-0.66 24.47,-0.66 11.78,0 17.54,-0.028 17.48,-0.078 6.74,0.211 12.06,0.941 15.87,2.191 8.26,2.688 13.25,7.75 14.99,15.137 0.85,3.631 1.27,10.121 1.27,19.491 v 39.67 h -23.02 v -34.74"
         style="fill:#17233f;fill-opacity:1;fill-rule:nonzero;stroke:none"
         id="path32" />
      <path
         d="m 1651.55,1019 c -1.52,-0.62 -4.66,-0.94 -9.43,-0.94 h -36.07 v 19.48 h 36.9 c 5.11,0 8.4,-0.57 9.88,-1.72 1.74,-1.33 2.61,-4.4 2.61,-9.22 0,-3.99 -1.3,-6.52 -3.89,-7.6 z m 27.08,12.44 c 0,5.65 -0.66,10.21 -1.99,13.65 -1.93,4.96 -5.89,8.21 -11.88,9.76 -3.29,0.85 -8.71,1.28 -16.25,1.28 h -65.43 v -75.751 h 22.97 v 19.152 h 35.46 c 3.18,0 5.4,-0.101 6.66,-0.281 4.03,-0.602 6.05,-3.738 6.05,-9.441 v -9.43 h 23.36 v 11.992 c 0,7.359 -1.83,12.189 -5.5,14.489 -1.81,1.14 -5.41,1.84 -10.82,2.1 -1.63,0.07 -2.88,0.14 -3.77,0.22 7.51,1.07 12.41,2.43 14.71,4.05 4.29,3.03 6.43,9.1 6.43,18.21"
         style="fill:#17233f;fill-opacity:1;fill-rule:nonzero;stroke:none"
         id="path34" />
      <path
         d="m 1809.71,1056.13 h -90.56 v -18.7 h 33.73 v -57.051 h 23.09 v 57.051 h 33.74 v 18.7"
         style="fill:#17233f;fill-opacity:1;fill-rule:nonzero;stroke:none"
         id="path36" />
      <path
         d="m 1845.69,1009.68 16.08,30.15 16.49,-30.15 z m 0.92,46.45 -42.62,-75.751 h 26.11 l 7.23,13.551 h 48.92 l 7.53,-13.551 h 25.18 l -41.45,75.751 h -30.9"
         style="fill:#17233f;fill-opacity:1;fill-rule:nonzero;stroke:none"
         id="path38" />
      <path
         d="m 1954.37,1036.93 c 1.81,1.21 4.79,1.83 8.93,1.83 l 7.33,0.11 c 3.55,0.08 6.54,0.09 8.99,0.06 h 8.1 c 2.66,0 4.66,0 5.99,0 6.03,-0.11 9.16,-2.9 9.38,-8.38 h 22.59 c 0,5.33 -0.36,9.37 -1.06,12.15 -1.99,7.88 -8.34,12.32 -19.03,13.32 -4.77,0.44 -13.91,0.66 -27.41,0.66 -17.39,0 -28.86,-0.71 -34.41,-2.16 -6.99,-1.81 -11.63,-5.68 -13.93,-11.6 -1.85,-4.78 -2.77,-13.34 -2.77,-25.69 0,-11.11 0.77,-18.851 2.33,-23.261 2.89,-8.168 10.08,-12.699 21.59,-13.59 4.8,-0.367 12.61,-0.547 23.41,-0.547 16.54,0 26.17,0.027 28.91,0.109 12.18,0.321 19.25,5.141 21.2,14.43 0.78,3.66 1.17,9.729 1.17,18.199 v 10.49 h -51.67 v -14.15 h 29.19 c 0.04,-1.05 0.06,-1.8 0.06,-2.28 0,-3.1 -0.68,-5.31 -2.03,-6.63 -1.35,-1.309 -3.6,-2.141 -6.74,-2.469 -1.41,-0.152 -5.26,-0.23 -11.55,-0.23 -10.91,0 -16.86,0.019 -17.86,0.058 -6.99,0.262 -11.38,2.09 -13.15,5.471 -1.15,2.19 -1.72,6.76 -1.72,13.73 0,5.58 0.11,9.68 0.33,12.29 0.33,3.91 1.61,6.61 3.83,8.08"
         style="fill:#17233f;fill-opacity:1;fill-rule:nonzero;stroke:none"
         id="path40" />
      <path
         d="m 2066.96,1056.13 h -23.07 v -75.751 h 75.24 v 18.699 h -52.17 v 57.052"
         style="fill:#17233f;fill-opacity:1;fill-rule:nonzero;stroke:none"
         id="path42" />
      <path
         d="m 2131.28,980.379 h 23.09 v 75.751 h -23.09 v -75.751"
         style="fill:#17233f;fill-opacity:1;fill-rule:nonzero;stroke:none"
         id="path44" />
      <path
         d="m 2256.69,998.48 -45.95,57.65 h -36.68 v -75.751 h 22.2 l -0.66,57.051 45.28,-57.051 h 37 v 75.751 h -21.8 l 0.61,-57.65"
         style="fill:#17233f;fill-opacity:1;fill-rule:nonzero;stroke:none"
         id="path46" />
      <path
         d="m 2320.34,1011.02 h 57.77 V 1026 h -57.77 v 12.93 h 61.2 v 17.2 h -83.95 v -75.751 h 84.72 v 17.211 h -61.97 v 13.43"
         style="fill:#17233f;fill-opacity:1;fill-rule:nonzero;stroke:none"
         id="path48" />
      <path
         d="m 2503.29,1028.16 h -52.44 v 27.97 h -23.09 v -75.751 h 23.09 v 29.071 h 52.44 v -29.071 h 23.09 v 75.751 h -23.09 v -27.97"
         style="fill:#17233f;fill-opacity:1;fill-rule:nonzero;stroke:none"
         id="path50" />
      <path
         d="m 2568.83,1011.02 h 57.76 V 1026 h -57.76 v 12.93 h 61.21 v 17.2 h -83.97 v -75.751 h 84.74 v 17.211 h -61.98 v 13.43"
         style="fill:#17233f;fill-opacity:1;fill-rule:nonzero;stroke:none"
         id="path52" />
      <path
         d="m 2716.33,1019 c -1.53,-0.62 -4.67,-0.94 -9.45,-0.94 h -36.06 v 19.48 h 36.9 c 5.11,0 8.4,-0.57 9.89,-1.72 1.74,-1.33 2.6,-4.4 2.6,-9.22 0,-3.99 -1.29,-6.52 -3.88,-7.6 z m 27.07,12.44 c 0,5.65 -0.67,10.21 -1.99,13.65 -1.93,4.96 -5.88,8.21 -11.88,9.76 -3.3,0.85 -8.71,1.28 -16.26,1.28 h -65.42 v -75.751 h 22.97 v 19.152 h 35.46 c 3.18,0 5.4,-0.101 6.66,-0.281 4.03,-0.602 6.04,-3.738 6.04,-9.441 v -9.43 h 23.36 v 11.992 c 0,7.359 -1.82,12.189 -5.48,14.489 -1.82,1.14 -5.42,1.84 -10.82,2.1 -1.64,0.07 -2.9,0.14 -3.78,0.22 7.51,1.07 12.42,2.43 14.7,4.05 4.29,3.03 6.44,9.1 6.44,18.21"
         style="fill:#17233f;fill-opacity:1;fill-rule:nonzero;stroke:none"
         id="path54" />
      <path
         d="m 2785.02,1011.02 h 57.76 V 1026 h -57.76 v 12.93 h 61.21 v 17.2 h -83.95 V 980.379 H 2847 v 17.211 h -61.98 v 13.43"
         style="fill:#17233f;fill-opacity:1;fill-rule:nonzero;stroke:none"
         id="path56" />
      <path
         d="m 2081.1,2425.02 -67.4,198.12 c -15.32,44.94 -25.54,85.79 -35.75,125.62 h -2.04 c -10.22,-40.85 -21.45,-82.72 -34.72,-124.59 l -67.41,-199.15 z m -225.7,-69.45 -71.48,-216.51 H 1692 l 233.87,688.34 h 107.24 L 2268,2139.06 h -94.98 l -73.54,216.51 H 1855.4"
         style="fill:#17233f;fill-opacity:1;fill-rule:nonzero;stroke:none"
         id="path58" />
      <path
         d="m 1787.33,2730.95 183.31,250.13 -330.84,-2.54 145.6,-248.12 1.93,0.53"
         style="fill:#662290;fill-opacity:1;fill-rule:evenodd;stroke:none"
         id="path60" />
      <path
         d="m 1970.64,2981.08 189.77,-246.8 141.38,249.18 z"
         style="fill:#6c40a3;fill-opacity:1;fill-rule:evenodd;stroke:none"
         id="path62" />
      <path
         d="m 2301.79,2983.46 -141.38,-249.18 308.91,-36.13 z"
         style="fill:#264186;fill-opacity:1;fill-rule:evenodd;stroke:none"
         id="path64" />
      <path
         d="m 2469.32,2698.15 -120.7,-285.66 0.83,-2.1 287.41,2.45 -167.54,285.31"
         style="fill:#4bbae2;fill-opacity:1;fill-rule:evenodd;stroke:none"
         id="path66" />
      <path
         d="m 2636.86,2412.84 -287.41,-2.45 124.09,-285.4 z"
         style="fill:#48b039;fill-opacity:1;fill-rule:evenodd;stroke:none"
         id="path68" />
      <path
         d="m 2473.54,2124.99 -309.49,-37.79 -0.34,-0.61 146.5,-249.45 163.33,287.85"
         style="fill:#afda19;fill-opacity:1;fill-rule:evenodd;stroke:none"
         id="path70" />
      <path
         d="m 2310.21,1837.14 -146.5,249.45 -184.35,-252 z"
         style="fill:#ebcb15;fill-opacity:1;fill-rule:evenodd;stroke:none"
         id="path72" />
      <path
         d="M 1979.36,1834.59 1791.29,2083.7 1648.51,1832.05 Z"
         style="fill:#ef3220;fill-opacity:1;fill-rule:evenodd;stroke:none"
         id="path74" />
      <path
         d="m 1648.51,1832.05 142.78,251.65 -310.61,33.82 z"
         style="fill:#a71c21;fill-opacity:1;fill-rule:evenodd;stroke:none"
         id="path76" />
      <path
         d="m 1480.68,2117.52 121.74,287.53 -289.26,-2.21 z"
         style="fill:#a91c22;fill-opacity:1;fill-rule:evenodd;stroke:none"
         id="path78" />
      <path
         d="m 1313.16,2402.84 289.26,2.21 0.34,0.61 -126.28,285.03 -163.32,-287.85"
         style="fill:#e50581;fill-opacity:1;fill-rule:evenodd;stroke:none"
         id="path80" />
      <path
         d="m 1476.48,2690.69 308.92,39.73 -145.6,248.12 z"
         style="fill:#bf1554;fill-opacity:1;fill-rule:evenodd;stroke:none"
         id="path82" />
      <path
         d="m 1967.57,3229.47 -183.32,-250.13 186.39,1.74 186.69,1.58 -189.76,246.81"
         style="fill:#533a9d;fill-opacity:1;fill-rule:evenodd;stroke:none"
         id="path84" />
      <path
         d="m 1567.53,2854.03 -308.93,-39.72 126.29,-285.04 92.28,162.65 91.24,160.8 -0.88,1.31"
         style="fill:#c00f7d;fill-opacity:1;fill-rule:evenodd;stroke:none"
         id="path86" />
      <path
         d="m 1481.58,2119.45 -93.67,160.25 -0.79,0.03 -121.74,-287.52 310.62,-33.82 -94.42,161.06"
         style="fill:#c11e24;fill-opacity:1;fill-rule:evenodd;stroke:none"
         id="path88" />
      <path
         d="m 1979.64,1835.07 -186.38,-1.74 188.06,-249.11 184.34,252 -0.11,0.47 -185.91,-1.62"
         style="fill:#f26a17;fill-opacity:1;fill-rule:evenodd;stroke:none"
         id="path90" />
      <path
         d="m 1979.64,1835.07 -186.38,-1.74 188.06,-249.11 184.34,252 -0.11,0.47 z"
         style="fill:none;stroke:#f14a1c;stroke-width:2.26772;stroke-linecap:butt;stroke-linejoin:miter;stroke-miterlimit:10;stroke-dasharray:none;stroke-opacity:1"
         id="path92" />
      <path
         d="m 2474.23,2126.22 -92.29,-162.65 309.49,37.79 -124.08,285.4 -1.89,0.26 -91.23,-160.8"
         style="fill:#85ce26;fill-opacity:1;fill-rule:evenodd;stroke:none"
         id="path94" />
      <path
         d="m 2469.33,2698.14 94.09,-160.88 120.71,285.66 -308.91,36.12 94.11,-160.9"
         style="fill:#3272b6;fill-opacity:1;fill-rule:evenodd;stroke:none"
         id="path96" />
    </g>
  </g>
</svg>
